# Blender v2.82 (sub 7) OBJ File: 'project.blend'
# www.blender.org
v -0.110000 0.000000 0.110000
v -0.110000 0.000000 -0.110000
v -0.110000 0.646730 0.110000
v 0.110000 0.000000 0.110000
v 0.110000 0.000000 -0.110000
v 0.110000 0.646730 0.110000
v 0.110000 0.646730 -0.110000
v -0.110000 0.646730 -0.110000
vn 0.0000 -1.0000 0.0000
vn -1.0000 -0.0000 0.0000
vn 0.0000 0.0000 1.0000
vn 1.0000 0.0000 -0.0000
vn 0.0000 1.0000 0.0000
vn 0.0000 -0.0000 -1.0000
s off
f 5//1 1//1 2//1
f 3//2 2//2 1//2
f 6//3 1//3 4//3
f 5//4 6//4 4//4
f 8//5 6//5 7//5
f 8//6 5//6 2//6
f 5//1 4//1 1//1
f 3//2 8//2 2//2
f 6//3 3//3 1//3
f 5//4 7//4 6//4
f 8//5 3//5 6//5
f 8//6 7//6 5//6
