# Blender v2.82 (sub 7) OBJ File: 'project.blend'
# www.blender.org
v -0.033985 4.344622 -0.565562
v -0.077712 4.365908 -0.540113
v -0.956335 5.826439 -3.389723
v 0.003153 4.315109 -0.593177
v 0.032276 4.278502 -0.621895
v -0.919197 5.796926 -3.417337
v -0.890074 5.760320 -3.446056
v -0.870086 5.718028 -3.474774
v -0.860002 5.671675 -3.502388
v 0.052263 4.236210 -0.650613
v 0.062348 4.189857 -0.678228
v 0.062141 4.141224 -0.703678
v 0.051652 4.092181 -0.725985
v -0.860209 5.623042 -3.527838
v -0.870698 5.573998 -3.550145
v -0.891067 5.526429 -3.568452
v -0.920533 5.482162 -3.582055
v 0.031283 4.044612 -0.744292
v 0.001817 4.000345 -0.757895
v -0.035614 3.961081 -0.766272
v -0.079571 3.928329 -0.769100
v -0.957964 5.442899 -3.590432
v -1.001921 5.410147 -3.593261
v -1.050714 5.385166 -3.590432
v -1.102470 5.368917 -3.582056
v -0.128365 3.903349 -0.766272
v -0.180120 3.887099 -0.757895
v -0.232849 3.880204 -0.744292
v -0.284524 3.882930 -0.725985
v -1.155198 5.362021 -3.568452
v -1.206874 5.364747 -3.550146
v -1.255509 5.376988 -3.527839
v -1.299237 5.398274 -3.502389
v -0.333160 3.895171 -0.703678
v -0.376887 3.916457 -0.678228
v -0.414025 3.945970 -0.650614
v -0.443148 3.982576 -0.621896
v -1.336375 5.427788 -3.474774
v -1.365498 5.464394 -3.446056
v -1.385485 5.506686 -3.417338
v -1.395569 5.553040 -3.389723
v -0.463135 4.024869 -0.593177
v -0.473220 4.071221 -0.565563
v -0.473013 4.119854 -0.540113
v -0.462524 4.168898 -0.517806
v -1.395363 5.601672 -3.364274
v -1.384873 5.650715 -3.341967
v -1.364504 5.698284 -3.323660
v -1.335038 5.742552 -3.310057
v -0.442154 4.216467 -0.499499
v -0.412688 4.260734 -0.485896
v -0.375258 4.299997 -0.477519
v -0.331301 4.332749 -0.474691
v -1.297608 5.781816 -3.301680
v -1.253651 5.814567 -3.298851
v -1.204857 5.839547 -3.301680
v -1.153101 5.855798 -3.310057
v -0.282507 4.357730 -0.477519
v -0.230752 4.373980 -0.485896
v -0.178023 4.380875 -0.499499
v -0.126348 4.378149 -0.517806
v -1.100373 5.862692 -3.323660
v -1.048698 5.859966 -3.341967
v -1.000062 5.847726 -3.364273
vn 0.2778 -0.4463 0.8507
vn 0.5368 0.8065 0.2478
vn 0.6819 0.7153 0.1526
vn 0.8008 0.5967 0.0515
vn -0.2778 0.4463 -0.8507
vn 0.8889 0.4551 -0.0515
vn 0.9429 0.2961 -0.1526
vn 0.9606 0.1256 -0.2478
vn 0.9414 -0.0497 -0.3335
vn 0.8861 -0.2230 -0.4064
vn 0.7966 -0.3878 -0.4637
vn 0.6766 -0.5377 -0.5031
vn 0.5306 -0.6669 -0.5232
vn 0.3641 -0.7705 -0.5232
vn 0.1837 -0.8445 -0.5031
vn -0.0038 -0.8860 -0.4637
vn -0.1911 -0.8935 -0.4064
vn -0.3711 -0.8666 -0.3335
vn -0.5368 -0.8065 -0.2478
vn -0.6819 -0.7153 -0.1526
vn -0.8008 -0.5967 -0.0515
vn -0.8889 -0.4551 0.0515
vn -0.9429 -0.2961 0.1526
vn -0.9606 -0.1256 0.2478
vn -0.9414 0.0497 0.3335
vn -0.8861 0.2230 0.4064
vn -0.7966 0.3878 0.4637
vn -0.6766 0.5377 0.5031
vn -0.5306 0.6669 0.5232
vn -0.3641 0.7705 0.5232
vn -0.1837 0.8445 0.5031
vn 0.0038 0.8860 0.4637
vn 0.1911 0.8935 0.4064
vn 0.3711 0.8666 0.3335
vn 0.2778 -0.4463 0.8506
vn 0.2778 -0.4464 0.8506
vn 0.2779 -0.4463 0.8506
vn -0.2778 0.4464 -0.8506
vn -0.2778 0.4463 -0.8506
vn 0.9429 0.2960 -0.1526
vn -0.9429 -0.2960 0.1526
vn 0.0038 0.8860 0.4636
s off
f 52//1 36//1 20//1
f 1//2 64//2 2//2
f 4//3 3//3 1//3
f 7//4 4//4 5//4
f 63//5 15//5 31//5
f 10//6 7//6 5//6
f 11//7 8//7 10//7
f 14//8 11//8 12//8
f 13//9 14//9 12//9
f 18//10 15//10 13//10
f 19//11 16//11 18//11
f 22//12 19//12 20//12
f 23//13 20//13 21//13
f 24//14 21//14 26//14
f 27//15 24//15 26//15
f 30//16 27//16 28//16
f 31//17 28//17 29//17
f 32//18 29//18 34//18
f 33//19 34//19 35//19
f 36//20 33//20 35//20
f 39//21 36//21 37//21
f 42//22 39//22 37//22
f 43//23 40//23 42//23
f 46//24 43//24 44//24
f 45//25 46//25 44//25
f 48//26 45//26 50//26
f 51//27 48//27 50//27
f 54//28 51//28 52//28
f 53//29 54//29 52//29
f 56//30 53//30 58//30
f 59//31 56//31 58//31
f 62//32 59//32 60//32
f 63//33 60//33 61//33
f 2//34 63//34 61//34
f 4//35 1//35 60//35
f 1//36 2//36 60//36
f 2//1 61//1 60//1
f 60//1 59//1 52//1
f 59//35 58//35 52//35
f 58//1 53//1 52//1
f 52//1 51//1 50//1
f 50//1 45//1 52//1
f 45//1 44//1 52//1
f 44//1 43//1 42//1
f 42//1 37//1 36//1
f 36//1 35//1 34//1
f 34//36 29//36 36//36
f 29//35 28//35 36//35
f 28//1 27//1 26//1
f 26//1 21//1 28//1
f 21//35 20//35 28//35
f 20//35 19//35 12//35
f 19//35 18//35 12//35
f 18//35 13//35 12//35
f 12//37 11//37 10//37
f 10//36 5//36 4//36
f 44//35 42//35 52//35
f 42//1 36//1 52//1
f 12//35 10//35 20//35
f 10//1 4//1 20//1
f 4//1 60//1 52//1
f 36//1 28//1 20//1
f 4//1 52//1 20//1
f 1//2 3//2 64//2
f 4//3 6//3 3//3
f 7//4 6//4 4//4
f 63//5 64//5 3//5
f 3//38 6//38 7//38
f 7//5 8//5 9//5
f 9//5 14//5 15//5
f 15//39 16//39 17//39
f 17//5 22//5 23//5
f 23//39 24//39 31//39
f 24//38 25//38 31//38
f 25//5 30//5 31//5
f 31//38 32//38 33//38
f 33//5 38//5 31//5
f 38//5 39//5 31//5
f 39//5 40//5 41//5
f 41//39 46//39 47//39
f 47//5 48//5 55//5
f 48//5 49//5 55//5
f 49//5 54//5 55//5
f 55//38 56//38 63//38
f 56//5 57//5 63//5
f 57//38 62//38 63//38
f 63//39 3//39 7//39
f 7//5 9//5 63//5
f 9//5 15//5 63//5
f 15//39 17//39 31//39
f 17//5 23//5 31//5
f 39//39 41//39 47//39
f 31//5 39//5 63//5
f 39//5 47//5 63//5
f 47//5 55//5 63//5
f 10//6 8//6 7//6
f 11//40 9//40 8//40
f 14//8 9//8 11//8
f 13//9 15//9 14//9
f 18//10 16//10 15//10
f 19//11 17//11 16//11
f 22//12 17//12 19//12
f 23//13 22//13 20//13
f 24//14 23//14 21//14
f 27//15 25//15 24//15
f 30//16 25//16 27//16
f 31//17 30//17 28//17
f 32//18 31//18 29//18
f 33//19 32//19 34//19
f 36//20 38//20 33//20
f 39//21 38//21 36//21
f 42//22 40//22 39//22
f 43//41 41//41 40//41
f 46//24 41//24 43//24
f 45//25 47//25 46//25
f 48//26 47//26 45//26
f 51//27 49//27 48//27
f 54//28 49//28 51//28
f 53//29 55//29 54//29
f 56//30 55//30 53//30
f 59//31 57//31 56//31
f 62//42 57//42 59//42
f 63//33 62//33 60//33
f 2//34 64//34 63//34
