# Blender v2.82 (sub 7) OBJ File: 'project.blend'
# www.blender.org
v -0.314270 1.779696 -0.544331
v 0.628539 1.779696 0.000000
v -0.314270 1.779696 0.544331
v -0.628539 0.890807 -1.088662
v -0.942809 0.001918 0.544331
v -0.628539 0.890807 1.088662
v 0.000000 0.001918 1.088662
v -0.942809 0.001918 -0.544331
v 0.000000 0.001918 -1.088662
v 0.942809 0.001918 0.544331
v 1.257079 0.890807 0.000000
v 0.942809 0.001918 -0.544331
vn 0.4714 0.3333 -0.8165
vn 0.0000 1.0000 0.0000
vn -0.9428 0.3333 0.0000
vn -0.4714 -0.3333 0.8165
vn 0.0000 -1.0000 0.0000
vn -0.4714 -0.3333 -0.8165
vn 0.4714 0.3333 0.8165
vn 0.9428 -0.3333 0.0000
s off
f 2//1 4//1 1//1
f 1//2 3//2 2//2
f 1//3 6//3 3//3
f 1//3 8//3 5//3
f 5//4 7//4 6//4
f 7//5 8//5 10//5
f 10//5 9//5 12//5
f 9//6 8//6 4//6
f 3//7 11//7 2//7
f 11//8 10//8 12//8
f 3//7 7//7 10//7
f 2//1 12//1 9//1
f 2//1 9//1 4//1
f 1//3 5//3 6//3
f 1//3 4//3 8//3
f 7//5 5//5 8//5
f 10//5 8//5 9//5
f 3//7 10//7 11//7
f 3//7 6//7 7//7
f 2//1 11//1 12//1
