# Blender v2.82 (sub 7) OBJ File: 'project.blend'
# www.blender.org
v -0.020106 0.731022 -0.231767
v 0.102037 0.638327 -0.320294
v 0.148281 0.731558 -0.177054
v -0.124175 0.730690 -0.197953
v 0.212600 0.731763 0.088527
v 0.212600 0.731763 -0.088527
v 0.334743 0.639068 -0.000000
v 0.148281 0.731558 0.177054
v 0.421811 0.395651 0.088527
v 0.392567 0.546170 -0.000000
v 0.421811 0.395651 -0.088527
v 0.393230 0.338031 0.177054
v 0.289161 0.337700 0.320294
v 0.318405 0.187181 0.231767
v 0.272160 0.093950 0.197952
v 0.225916 0.000720 0.054713
v 0.121846 0.000388 0.197952
v 0.393230 0.338031 -0.177054
v 0.213673 0.394988 0.375007
v 0.120110 0.545302 0.375007
v 0.045285 0.394451 0.429719
v -0.047614 0.336627 0.429719
v -0.216002 0.336090 0.375007
v -0.122439 0.185776 0.375007
v 0.102037 0.638327 0.320294
v 0.017777 0.000057 0.231767
v -0.150610 -0.000480 0.177054
v -0.104366 0.092751 0.320294
v -0.337072 0.092009 -0.000000
v -0.214929 -0.000685 -0.088527
v -0.214929 -0.000685 0.088527
v -0.394896 0.184909 -0.000000
v -0.424140 0.335427 -0.088527
v -0.424140 0.335427 0.088527
v -0.150610 -0.000480 -0.177054
v 0.017777 0.000057 -0.231767
v -0.104366 0.092751 -0.320294
v 0.289161 0.337700 -0.320294
v -0.122439 0.185776 -0.375007
v -0.047614 0.336627 -0.429719
v -0.216002 0.336090 -0.375007
v 0.213673 0.394988 -0.375007
v -0.395559 0.393047 -0.177054
v -0.291490 0.393378 -0.320294
v -0.320734 0.543897 -0.231767
v -0.395559 0.393047 0.177054
v -0.320734 0.543897 0.231767
v -0.291490 0.393378 0.320294
v -0.124175 0.730690 0.197952
v -0.228245 0.730358 0.054713
v -0.274489 0.637128 0.197952
v -0.020106 0.731022 0.231767
v -0.228245 0.730358 -0.054713
v -0.274489 0.637128 -0.197953
v 0.120110 0.545302 -0.375007
v 0.045285 0.394451 -0.429719
v 0.318405 0.187181 -0.231767
v 0.272160 0.093950 -0.197952
v 0.121846 0.000388 -0.197952
v 0.225916 0.000720 -0.054713
vn -0.2778 0.4463 -0.8507
vn 0.1851 0.7952 -0.5774
vn -0.0032 1.0000 0.0000
vn 0.6045 0.7966 0.0000
vn 0.7222 0.4495 0.5257
vn 0.9816 0.1907 -0.0000
vn 0.8958 -0.4444 -0.0000
vn 0.7952 -0.1851 0.5774
vn 0.2778 -0.4463 0.8507
vn 0.4937 -0.7931 0.3568
vn 0.3029 0.1886 0.9342
vn -0.2778 0.4463 0.8507
vn -0.3029 -0.1886 0.9342
vn 0.0032 -1.0000 -0.0000
vn -0.1851 -0.7952 0.5774
vn -0.7222 -0.4495 0.5257
vn -0.7222 -0.4495 -0.5257
vn -0.6045 -0.7966 0.0000
vn -0.9816 -0.1907 0.0000
vn -0.1851 -0.7952 -0.5774
vn 0.2778 -0.4463 -0.8507
vn -0.3029 -0.1886 -0.9342
vn -0.7952 0.1851 -0.5773
vn -0.8958 0.4444 0.0000
vn -0.7952 0.1851 0.5774
vn -0.4937 0.7931 0.3568
vn 0.1851 0.7952 0.5774
vn -0.4937 0.7931 -0.3568
vn 0.3029 0.1886 -0.9342
vn 0.7222 0.4495 -0.5257
vn 0.7952 -0.1851 -0.5774
vn 0.4937 -0.7931 -0.3568
s off
f 2//1 4//1 1//1
f 1//2 3//2 2//2
f 3//3 5//3 6//3
f 4//3 5//3 1//3
f 6//4 5//4 7//4
f 7//5 9//5 10//5
f 8//5 9//5 5//5
f 10//6 9//6 11//6
f 12//7 11//7 9//7
f 25//5 12//5 8//5
f 13//8 14//8 12//8
f 14//9 19//9 15//9
f 15//7 11//7 14//7
f 16//7 18//7 15//7
f 15//10 17//10 16//10
f 15//9 21//9 17//9
f 25//5 19//5 13//5
f 20//11 21//11 19//11
f 22//12 20//12 25//12
f 17//9 22//9 26//9
f 23//12 25//12 52//12
f 23//13 24//13 22//13
f 26//9 24//9 28//9
f 26//14 16//14 17//14
f 26//15 28//15 27//15
f 28//16 31//16 27//16
f 24//16 29//16 28//16
f 30//17 32//17 35//17
f 30//18 31//18 29//18
f 35//17 33//17 37//17
f 33//19 32//19 34//19
f 24//16 34//16 32//16
f 35//14 59//14 30//14
f 36//20 35//20 37//20
f 38//21 36//21 37//21
f 38//21 39//21 42//21
f 37//17 43//17 39//17
f 56//21 39//21 40//21
f 40//22 39//22 41//22
f 41//17 43//17 44//17
f 44//23 43//23 45//23
f 43//24 47//24 45//24
f 43//24 34//24 46//24
f 46//25 48//25 47//25
f 48//16 34//16 23//16
f 48//12 51//12 47//12
f 23//12 49//12 48//12
f 50//3 52//3 53//3
f 50//26 51//26 49//26
f 53//3 8//3 4//3
f 52//27 25//27 8//27
f 54//24 50//24 53//24
f 54//28 53//28 4//28
f 55//1 54//1 2//1
f 45//24 51//24 54//24
f 56//1 45//1 55//1
f 55//29 42//29 56//29
f 3//30 55//30 2//30
f 56//1 41//1 44//1
f 6//30 42//30 3//30
f 7//30 38//30 6//30
f 18//31 57//31 38//31
f 58//21 36//21 57//21
f 16//7 58//7 57//7
f 58//32 60//32 59//32
f 30//14 60//14 31//14
f 31//14 16//14 27//14
f 7//30 11//30 18//30
f 2//1 54//1 4//1
f 3//3 1//3 5//3
f 4//3 8//3 5//3
f 7//5 5//5 9//5
f 8//5 12//5 9//5
f 12//7 14//7 11//7
f 25//5 13//5 12//5
f 14//9 13//9 19//9
f 15//7 18//7 11//7
f 16//7 57//7 18//7
f 15//9 19//9 21//9
f 25//5 20//5 19//5
f 22//12 21//12 20//12
f 17//9 21//9 22//9
f 23//12 22//12 25//12
f 26//9 22//9 24//9
f 26//14 27//14 16//14
f 28//16 29//16 31//16
f 24//16 32//16 29//16
f 30//17 29//17 32//17
f 35//17 32//17 33//17
f 24//16 23//16 34//16
f 35//14 36//14 59//14
f 38//21 57//21 36//21
f 38//21 37//21 39//21
f 37//17 33//17 43//17
f 56//21 42//21 39//21
f 41//17 39//17 43//17
f 43//24 46//24 47//24
f 43//24 33//24 34//24
f 48//16 46//16 34//16
f 48//12 49//12 51//12
f 23//12 52//12 49//12
f 50//3 49//3 52//3
f 53//3 52//3 8//3
f 54//24 51//24 50//24
f 55//1 45//1 54//1
f 45//24 47//24 51//24
f 56//1 44//1 45//1
f 3//30 42//30 55//30
f 56//1 40//1 41//1
f 6//30 38//30 42//30
f 7//30 18//30 38//30
f 58//21 59//21 36//21
f 16//7 60//7 58//7
f 30//14 59//14 60//14
f 31//14 60//14 16//14
f 7//30 10//30 11//30
